<svg width="24" height="24" viewBox="0 0 24 24" fill="none" xmlns="http://www.w3.org/2000/svg">
<path d="M14.0311 12.6235C14.0311 13.0399 13.4061 13.0399 13.4061 12.6235C13.4061 12.2071 14.0311 12.2071 14.0311 12.6235Z" fill="currentColor" stroke="currentColor" stroke-width="0.4"/>
<path d="M15.7499 12.6235C15.7499 13.0399 15.1249 13.0399 15.1249 12.6235C15.1249 12.2071 15.7499 12.2071 15.7499 12.6235Z" fill="currentColor" stroke="currentColor" stroke-width="0.4"/>
<path d="M19.3335 7.02591C19.3397 7.02357 19.3452 7.02122 19.3507 7.01888C19.4225 6.98685 21.1045 6.22278 21.0608 5.00089C21.0608 4.99386 21.06 4.98683 21.0592 4.9798C20.9866 4.27825 20.7936 3.42513 20.2874 3.34777C20.2772 3.34621 18.3889 3.2509 18.3889 3.2509L18.3897 3.25012C18.2921 3.22902 18.2053 3.17512 18.1428 3.097C17.8022 2.63918 16.5249 1.25169 14.3429 2.52356C14.0913 2.59543 13.0023 2.92278 12.5343 3.31651C12.4085 3.41573 11.4976 4.20635 11.4241 6.38129V6.38207C11.4234 6.39769 11.4241 6.41254 11.4257 6.42816C11.4288 6.45707 11.5124 7.13284 12.1062 7.42033C12.6374 7.67737 13.3647 7.52346 14.2553 6.96878L14.2561 6.96956C14.453 6.84925 14.6733 6.77191 14.903 6.74144C15.0522 6.82816 15.2436 6.7766 15.3295 6.62738C15.4155 6.47738 15.3647 6.28676 15.2155 6.20004C14.8311 5.97817 14.203 6.28208 13.9389 6.4305C13.253 6.85706 12.7007 7.0094 12.3835 6.85862L12.3827 6.8594C12.2046 6.75549 12.0819 6.57736 12.0499 6.37424C12.1225 4.44536 12.9108 3.81647 12.9155 3.81246C12.9218 3.80778 12.928 3.80309 12.9343 3.79762C13.2671 3.51402 14.2139 3.20857 14.5506 3.11403C14.5772 3.107 14.6022 3.09606 14.6256 3.082C16.2709 2.10544 17.221 2.90621 17.6404 3.47027H17.6412C17.8146 3.69761 18.074 3.84371 18.3584 3.87417L20.1615 3.96479C20.2623 4.0937 20.3888 4.57807 20.438 5.03196C20.4513 5.689 19.4888 6.26945 19.1052 6.44367C17.6724 6.99133 18.1615 9.08585 18.3701 9.98124L18.4255 10.218C18.774 11.7008 19.0748 12.9819 18.6349 14.4453L17.656 17.6993C17.3654 18.6087 17.3787 19.3329 17.6959 19.8517H17.6943C17.8865 20.1665 18.1935 20.3946 18.5513 20.4861C18.6521 20.5267 18.7326 20.6048 18.7748 20.7048C18.842 20.9228 18.8427 21.1564 18.7763 21.3743H17.3795H17.3802C17.2076 21.3743 17.0678 21.5142 17.0678 21.6868C17.0678 21.8595 17.2076 21.9993 17.3802 21.9993H19.006C19.1334 21.9993 19.2482 21.922 19.2959 21.804C19.3271 21.7267 19.5943 21.029 19.3498 20.4595C19.2373 20.1986 19.0232 19.9947 18.7576 19.8947C18.7373 19.8869 18.7154 19.8806 18.6943 19.8775C18.499 19.8251 18.3318 19.6986 18.2279 19.5259C18.0131 19.1744 18.0209 18.6088 18.2521 17.8845L19.2326 14.6252C19.7209 13.0017 19.3865 11.5806 19.0334 10.0752L18.9779 9.84004C18.806 9.10177 18.403 7.37511 19.3335 7.02591Z" fill="currentColor" stroke="currentColor" stroke-width="0.4"/>
<path d="M15.6201 19.0672C17.0201 17.5282 16.5021 15.1462 16.3162 14.4704C17.8748 12.7072 16.6412 10.4495 16.6279 10.4259C16.5865 10.3524 16.5178 10.2985 16.4365 10.2767C16.3553 10.2548 16.2685 10.2665 16.1959 10.3095L15.2631 10.861C14.7537 10.7212 14.2154 10.7212 13.7069 10.861L12.774 10.3095H12.7733C12.6944 10.2626 12.599 10.2532 12.5123 10.2829C12.4264 10.3126 12.3569 10.379 12.3233 10.4649C11.9006 11.5071 11.9428 12.6805 12.4381 13.6907C11.0584 14.1501 10.0499 14.9384 9.43813 16.0367C8.35376 17.9843 8.81548 20.3445 9.10298 21.3743C9.10298 21.3743 5.26401 21.375 5.24061 21.375C2.82503 21.375 2.66963 19.6282 2.66723 19.6157C2.38989 18.1047 3.55316 17.3767 3.86566 17.2103C3.84925 17.3103 3.82191 17.4298 3.79379 17.5548V17.5556C3.71332 17.8361 3.67425 18.1259 3.67738 18.4173C3.7266 19.0415 3.91332 19.4626 4.24614 19.704C4.70159 20.0337 5.33051 19.9329 5.7633 19.8275V19.8282C5.95471 19.7767 6.13596 19.6954 6.30158 19.5861C6.30783 19.615 6.31408 19.6439 6.32111 19.6728C6.36486 19.8384 6.53205 19.94 6.69923 19.9009C6.77969 19.8806 6.84923 19.8298 6.89219 19.7587C6.93516 19.6876 6.94766 19.6032 6.92813 19.5228C6.83751 19.1126 6.80391 18.6931 6.82969 18.2743C7.20625 13.2814 10.1445 11.2252 10.1743 11.204C10.179 11.2009 10.1829 11.1978 10.1875 11.1946C11.1141 10.5142 11.8821 9.63996 12.4367 8.63285C12.4766 8.55941 12.4844 8.47426 12.4609 8.39457C12.4367 8.31489 12.382 8.24848 12.3094 8.20942C12.2359 8.17036 12.1508 8.16176 12.0711 8.18598C11.9922 8.20942 11.925 8.2641 11.886 8.33754C11.3727 9.26019 10.668 10.0633 9.81797 10.6907C9.60391 10.8376 6.6134 12.9813 6.2094 18.1837C6.2094 18.1868 6.17893 18.6227 6.1719 18.8368C6.16878 18.936 5.86956 19.1594 5.61566 19.2212C5.12505 19.3399 4.79691 19.3321 4.61255 19.1985C4.43912 19.0727 4.33444 18.7938 4.30006 18.3688V18.368C4.30631 18.1407 4.34068 17.9141 4.40318 17.6946C4.44224 17.5376 4.47349 17.3782 4.49537 17.2173C4.53912 17.0142 4.47193 16.8032 4.31881 16.6626C4.13365 16.5306 3.89225 16.5071 3.68521 16.6024C2.98054 16.9149 1.73523 17.968 2.05006 19.7172C2.07897 19.975 2.3985 22 5.23604 22C5.26182 22 9.215 21.9992 9.215 21.9992H9.21579C9.38688 22.0039 9.55016 21.9258 9.65562 21.7906C9.75718 21.6492 9.78609 21.468 9.73297 21.3016C9.52985 20.6086 8.94859 18.2024 9.98452 16.3414C10.5673 15.2953 11.5775 14.5672 12.9885 14.1766C13.0869 14.1493 13.1658 14.0758 13.1994 13.9797C13.2338 13.8829 13.2182 13.7766 13.1588 13.693C12.6612 12.904 12.526 11.9391 12.7877 11.0439L13.5088 11.4704C13.5916 11.5196 13.6916 11.5274 13.7815 11.4923C14.2424 11.3407 14.7401 11.3423 15.1994 11.497C15.2861 11.5274 15.3822 11.5173 15.4611 11.4704L16.2182 11.0228C16.4627 11.6266 16.8518 13.0415 15.7432 14.1687C15.6611 14.2523 15.6322 14.3742 15.669 14.4859C15.6775 14.5125 16.5213 17.1483 15.158 18.6469V18.6461C14.976 18.8523 14.869 19.114 14.8541 19.389V20.5429V20.5422C14.8541 20.6898 14.958 20.8179 15.1026 20.8484C15.383 20.9312 15.6205 21.1195 15.7635 21.3742H14.0651C14.001 21.0781 13.8213 20.8195 13.5659 20.6562C13.7174 20.2664 13.7924 19.8508 13.7885 19.432C13.7838 18.9758 13.5534 18.5508 13.1737 18.2984C13.0284 18.2054 12.8346 18.2476 12.7416 18.3929C12.6487 18.5383 12.6909 18.7312 12.8362 18.825C13.0424 18.9687 13.1651 19.2047 13.1643 19.4562C13.1776 19.7961 13.0541 20.3906 12.8822 20.6171H12.8815C12.8166 20.7031 12.8002 20.8171 12.8385 20.9179C12.8776 21.0187 12.9658 21.0929 13.0713 21.1132C13.3291 21.1781 13.5002 21.4226 13.4737 21.6867C13.4737 21.8593 13.6135 21.9992 13.7862 21.9992H16.1111C16.2814 21.9992 16.4205 21.8632 16.4236 21.6937L16.4299 21.396C16.4307 21.3531 16.4229 21.3101 16.4064 21.271C16.2346 20.8445 15.901 20.5039 15.4799 20.3211V19.3882V19.389C15.4947 19.2703 15.5432 19.1586 15.6205 19.0671L15.6201 19.0672Z" fill="currentColor" stroke="currentColor" stroke-width="0.4"/>
<path d="M10.8522 18.2218C10.8576 18.2218 10.8623 18.2218 10.8678 18.221C11.0404 18.2124 11.1733 18.0656 11.1647 17.8937C11.1459 17.5242 11.4631 17.0226 11.6272 16.9328H11.6264C11.7779 16.85 11.8326 16.6593 11.7498 16.5086C11.667 16.357 11.4772 16.3023 11.3256 16.3851C10.9451 16.5945 10.51 17.3273 10.5405 17.9249C10.5483 18.0906 10.6858 18.2218 10.8522 18.2218Z" fill="currentColor" stroke="currentColor" stroke-width="0.4"/>
<path d="M14.7344 14.0296C14.9062 14.0296 15.0469 13.8898 15.0469 13.7171C15.0469 13.5453 14.9062 13.4046 14.7344 13.4046H14.4219C14.2492 13.4046 14.1094 13.5453 14.1094 13.7171C14.1094 13.8898 14.2492 14.0296 14.4219 14.0296H14.7344Z" fill="currentColor" stroke="currentColor" stroke-width="0.4"/>
<path d="M17.0942 4.14932C17.1434 4.12588 17.2387 4.09307 17.2176 4.02119C17.2098 3.99463 17.1841 3.97276 17.1458 3.95166C16.8255 3.77198 16.7208 3.62588 16.6583 3.61416C16.3872 3.56182 16.2997 3.90556 16.2848 3.9751H16.2841C16.2864 4.03369 16.3145 4.08916 16.3598 4.12666C16.4622 4.19854 16.5841 4.23526 16.7083 4.23291C16.8419 4.23682 16.9747 4.20791 17.0942 4.14932Z" fill="currentColor" stroke="currentColor" stroke-width="0.4"/>
<path d="M12.4672 21.375H10.5937C10.4211 21.375 10.2812 21.5148 10.2812 21.6875C10.2812 21.8602 10.4211 22 10.5937 22H12.4672C12.6398 22 12.7797 21.8602 12.7797 21.6875C12.7797 21.5148 12.6398 21.375 12.4672 21.375Z" fill="currentColor" stroke="currentColor" stroke-width="0.4"/>
</svg>
