<svg width="26" height="25" viewBox="0 0 26 25" fill="none" xmlns="http://www.w3.org/2000/svg">
<path d="M24.9585 10.6933L22.8773 6.43072C22.8522 6.40564 22.8522 6.38057 22.8271 6.3555C22.777 6.30535 22.7018 6.2552 22.6266 6.2552C22.6015 6.2552 22.5764 6.23012 22.5513 6.23012L13.0733 4.5C13.0231 4.5 12.973 4.5 12.9479 4.5L3.46981 6.23012C3.34444 6.2552 3.24415 6.33042 3.194 6.45579L1.03761 10.7184C0.987463 10.8187 0.987463 10.9441 1.03761 11.0444C1.08776 11.1447 1.18806 11.2199 1.31343 11.245L3.36952 11.6211V19.3189C3.36952 19.4944 3.49489 19.6449 3.67041 19.695L13.0482 21.4001C13.0733 21.4001 13.0983 21.4001 13.1234 21.4001C13.1485 21.4001 13.1736 21.4001 13.1986 21.4001L22.5764 19.695C22.7519 19.6699 22.8773 19.4944 22.8773 19.3189V11.596L24.7328 11.2199C24.8582 11.1948 24.9334 11.1196 24.9835 11.0193C25.0086 10.919 25.0086 10.7936 24.9585 10.6933ZM12.9479 5.22715L20.2946 6.55609L12.973 7.88503L5.6262 6.55609L12.9479 5.22715ZM3.2943 10.8438L1.86506 10.593L3.2943 7.75965L3.67041 7.00743L4.04652 7.08265L12.296 8.5871L10.4906 12.1477L4.04652 10.9692L3.2943 10.8438ZM4.04652 11.7465L10.616 12.95C10.6411 12.95 10.6661 12.95 10.6912 12.95C10.8416 12.95 10.967 12.8748 11.0172 12.7494L12.6721 9.4647V20.5726L4.04652 19.018V11.7465ZM22.0749 18.9929L13.4494 20.5475V9.7656L15.0541 12.925C15.1293 13.0503 15.2547 13.1255 15.3801 13.1255C15.4052 13.1255 15.4302 13.1255 15.4553 13.1255L22.1 11.7715L22.0749 18.9929ZM22.8271 10.8438L22.0749 10.9942L15.5807 12.3232L13.7753 8.73755L22.0749 7.05757L22.3006 7.00743L22.8271 8.06054L24.0558 10.568L22.8271 10.8438Z" fill="currentColor"
stroke="currentColor" stroke-width="0.5"/>
</svg>
