<svg width="24" height="24" viewBox="0 0 24 24" fill="none" xmlns="http://www.w3.org/2000/svg">
<path d="M15.0211 18.0883L15.8974 14.7878V14.7671V14.7464V14.7257V14.705V14.6843V14.6636V14.6429V14.6222V14.6015V14.5808V14.5601V14.5394L14.838 12.0736C14.7767 11.9105 14.5937 11.8492 14.4305 11.9105C14.2674 11.9718 14.2061 12.1548 14.2674 12.318L15.2861 14.7017L14.0023 19.4691C13.9211 19.754 13.6155 19.9379 13.3099 19.8559C13.1674 19.8153 13.0449 19.7333 12.9637 19.5908C12.8825 19.4683 12.8618 19.3059 12.9024 19.1626L13.6155 16.4733C13.6561 16.3101 13.5542 16.1271 13.3911 16.0865C13.2279 16.0459 13.0449 16.1478 13.0043 16.311L12.2911 19.0003C12.2704 19.0409 12.2704 19.1022 12.2704 19.1427C12.2498 19.1634 12.2498 19.1833 12.2498 19.2239C12.2092 19.3664 12.1272 19.489 11.9847 19.5701C11.8621 19.6513 11.6998 19.672 11.5565 19.6314C11.2509 19.5502 11.0877 19.2446 11.1697 18.939V18.8984L11.8223 16.5194C11.8629 16.3562 11.7611 16.1732 11.5979 16.1326C11.4347 16.092 11.2517 16.1939 11.2111 16.357L10.5998 18.6596L10.5592 18.7822V18.8228L10.4168 19.3728C10.3356 19.6784 10.03 19.8416 9.72433 19.7596C9.58187 19.719 9.45929 19.637 9.37812 19.4945C9.29693 19.372 9.27624 19.2096 9.31683 19.0663L9.4394 18.5975L9.60256 17.9863V17.9656C9.62326 17.9043 9.66385 17.7411 9.76572 17.3543C9.80631 17.1912 9.70444 17.0081 9.54127 16.9675C9.37811 16.9269 9.19505 17.0288 9.15447 17.192L8.9913 17.8032V17.8239C8.97061 17.8852 8.93002 18.0484 8.82814 18.4352C8.78755 18.5777 8.70558 18.7002 8.5631 18.7814C8.44053 18.8626 8.27818 18.8833 8.1349 18.8427C7.82927 18.7615 7.6661 18.4559 7.74809 18.1503L7.93115 17.4984L8.70557 17.3154C9.33753 17.1729 9.74504 16.5409 9.58187 15.8891C9.52059 15.6646 9.41871 15.4609 9.25554 15.3184C9.64235 15.0534 9.8668 14.5647 9.74422 14.0752C9.68294 13.7696 9.47918 13.5045 9.21414 13.3414C9.17355 13.3207 9.15286 13.3008 9.11227 13.2801C9.27543 13.0357 9.31602 12.7094 9.25473 12.4038C9.19345 12.0982 8.98969 11.8331 8.72465 11.67C8.66337 11.6294 8.60208 11.6087 8.54159 11.5681C8.68406 11.3237 8.70475 11.038 8.64347 10.7531C8.501 10.1211 7.86905 9.7136 7.2172 9.87677L4.71084 10.4474C3.71278 9.02117 2.59223 7.20818 2.57144 7.1874C2.49026 7.04493 2.28652 7.00434 2.14324 7.08552C2.00077 7.16671 1.96018 7.37045 2.04136 7.51373C2.06205 7.53442 3.12141 9.24562 4.09967 10.6719C3.71286 10.9369 3.50911 11.4256 3.63087 11.9151C3.69216 12.1594 3.81393 12.3632 3.97709 12.5264C3.87521 12.6075 3.77334 12.7094 3.71205 12.832C3.54889 13.097 3.48759 13.4225 3.56958 13.7282C3.63087 14.0338 3.83462 14.2988 4.09966 14.462C4.24213 14.5432 4.40529 14.6045 4.56846 14.6252C4.48727 14.8289 4.48727 15.0733 4.52786 15.277C4.58915 15.5826 4.79291 15.8477 5.05795 16.0109C5.11923 16.0514 5.18052 16.0721 5.24101 16.1127C5.11844 16.3571 5.07785 16.6428 5.13913 16.9277C5.2617 17.4777 5.75039 17.8446 6.28047 17.8446C6.36165 17.8446 6.46353 17.8446 6.54551 17.804L7.19735 17.6409L7.11617 17.9871C6.95301 18.619 7.31992 19.2709 7.95188 19.4341C8.05376 19.4547 8.15564 19.4746 8.25751 19.4746C8.39998 19.4746 8.52255 19.454 8.64431 19.4134C8.66501 19.5558 8.7056 19.6784 8.78678 19.8002C8.94994 20.0652 9.19429 20.269 9.49992 20.3501C9.60179 20.3708 9.70367 20.3907 9.80554 20.3907C10.1923 20.3907 10.5394 20.2077 10.763 19.902C10.9055 20.0652 11.1092 20.187 11.3337 20.2483C11.4356 20.269 11.5374 20.2889 11.6393 20.2889C11.8431 20.2889 12.0468 20.2276 12.2299 20.1257C12.2912 20.0851 12.3524 20.0445 12.4129 20.0031C12.5761 20.2276 12.7997 20.4106 13.0855 20.4719C13.1874 20.4926 13.2892 20.5125 13.3911 20.5125C13.9212 20.5125 14.3892 20.1663 14.5324 19.6362L14.7569 18.7806C16.4482 20.5937 17.3849 21.6539 17.3849 21.6737C17.4462 21.735 17.5274 21.7756 17.6292 21.7756C17.7104 21.7756 17.7717 21.7549 17.833 21.6944C17.9556 21.5718 17.9755 21.3888 17.8537 21.2463C17.9142 21.267 16.8755 20.0851 15.0211 18.0881L15.0211 18.0883ZM7.40115 10.489C7.70678 10.4277 8.01241 10.6116 8.0737 10.9172C8.11429 11.0597 8.0737 11.2021 8.01241 11.3454C7.93123 11.468 7.80866 11.5699 7.6662 11.5897L4.97605 12.2002C4.69113 12.2615 4.3855 12.0776 4.30351 11.7927C4.24222 11.4871 4.42608 11.1814 4.73172 11.1202L7.40115 10.489ZM4.22221 13.5858C4.18162 13.4434 4.22221 13.3009 4.28349 13.1576C4.36468 13.035 4.48724 12.9332 4.62971 12.9133L5.0985 12.8114L7.99158 12.1389C8.13405 12.0983 8.27651 12.1389 8.41979 12.22C8.54236 12.3012 8.64424 12.4238 8.66413 12.5663C8.72541 12.8719 8.54156 13.1568 8.25662 13.2388L5.44464 13.8906C5.32207 13.9113 5.2003 13.9718 5.07772 14.0331C5.01643 14.0124 4.95515 13.9925 4.87397 14.0124C4.7315 14.053 4.58904 14.0124 4.44576 13.9312C4.34468 13.8508 4.26281 13.7283 4.22221 13.5858ZM5.26167 14.7264C5.34285 14.6038 5.46542 14.5019 5.60789 14.482L8.39909 13.8302H8.41978L8.50097 13.8095C8.64343 13.7689 8.78589 13.8095 8.92917 13.8907C9.05174 13.9719 9.15363 14.0944 9.17351 14.2369C9.2348 14.5425 9.05094 14.8481 8.74531 14.9094C8.68402 14.9301 8.62274 14.9707 8.58215 15.0113C8.45958 14.9906 8.3171 15.0113 8.19534 15.032L6.07673 15.5207C6.03613 15.5414 5.97485 15.5414 5.93426 15.5613H5.85307C5.71061 15.6019 5.56815 15.5613 5.42487 15.4801C5.3023 15.3989 5.20041 15.2763 5.18053 15.1339C5.15984 15.0121 5.17969 14.8696 5.26167 14.7264ZM6.46348 17.2128C6.15786 17.274 5.87293 17.0902 5.79094 16.7846C5.75035 16.6421 5.79094 16.4996 5.85222 16.3563C5.93341 16.2338 6.05597 16.1319 6.19844 16.112L8.31706 15.6233C8.35765 15.6233 8.39824 15.6026 8.43963 15.6026C8.68396 15.6026 8.9283 15.7857 8.98959 16.0308C9.05088 16.3365 8.86702 16.6214 8.56139 16.7034L6.46348 17.2128ZM21.9081 17.6608C21.8468 17.7221 21.7656 17.7627 21.6837 17.7627C21.6025 17.7627 21.5205 17.742 21.4592 17.6815L18.6886 14.9714C18.648 14.9308 18.6074 14.8696 18.6074 14.8083C18.1187 12.2208 17.3037 10.754 15.9378 10.0409C14.736 9.38903 13.1061 9.36833 11.1289 9.42962C11.1289 10.4691 11.3732 11.0596 11.9033 11.1822C12.4533 11.101 12.9833 11.0803 13.472 11.101C13.6352 11.101 13.7777 11.2435 13.7777 11.4274C13.7777 11.5905 13.6352 11.733 13.4513 11.733C12.9825 11.7123 12.4732 11.7537 11.9439 11.8142H11.842C10.8845 11.651 10.4563 10.7341 10.5176 9.12484C10.5176 8.96168 10.6601 8.83992 10.8232 8.81922C11.3119 8.79852 11.7807 8.79852 12.2089 8.77862C11.4146 7.63728 10.4157 7.27118 9.15264 7.63728C9.03007 7.67788 8.8876 7.63728 8.80642 7.53541C7.19711 5.37461 5.64826 3.54084 5.64826 3.52006C5.54639 3.39749 5.54639 3.19373 5.68885 3.07197C5.81142 2.97009 6.01518 2.97009 6.13695 3.11256C6.15764 3.13325 7.6245 4.86516 9.21401 6.96307C9.86586 6.79991 10.4771 6.8206 11.0271 7.00366C11.7808 7.2687 12.4327 7.85926 12.9627 8.75626C14.2258 8.79685 15.3267 8.96001 16.2436 9.44869C16.9973 9.8562 17.6085 10.4468 18.0773 11.2825C18.566 12.1182 18.9329 13.1974 19.198 14.5633L21.9081 17.1913C22.0306 17.3345 22.0307 17.5383 21.9081 17.6608Z" fill="currentColor"
stroke="currentColor" stroke-width="0.4"/>
</svg>
