<svg width="24" height="24" viewBox="0 0 24 24" fill="none" xmlns="http://www.w3.org/2000/svg">
<path d="M12.9058 15.7466C12.6922 15.7466 12.5058 15.6664 12.3724 15.5602L13.0662 14.4934H10.8265L11.5203 15.5602C11.387 15.6935 11.2005 15.7466 10.987 15.7466C10.6932 15.7466 10.4536 15.6133 10.3474 15.3997L9.65356 15.7466C9.89316 16.2269 10.4265 16.5196 11.0141 16.5196C11.361 16.5196 11.7079 16.4133 11.9745 16.2258C12.2412 16.4123 12.561 16.5196 12.935 16.5196C13.5215 16.5196 14.0549 16.2258 14.2955 15.7466L13.5726 15.3997C13.4392 15.5862 13.1996 15.7466 12.9058 15.7466Z" fill="currentColor" stroke="currentColor" stroke-width="0.4"/>
<path d="M21.7062 16.5997L22 15.8528C21.2802 15.5861 20.5604 15.3466 19.8134 15.1861C20.3468 14.0923 20.6406 12.8922 20.6406 11.5859C20.6406 8.43883 19.8405 5.61281 18.454 3.79911C18.1342 3.372 17.7342 3.31887 17.4675 3.34597C16.106 3.53244 14.586 6.51894 14.1329 7.50566C12.7464 7.23898 11.2525 7.23898 9.89322 7.50566C9.35986 6.33269 7.86602 3.53265 6.53251 3.3449C6.15958 3.29177 5.78559 3.45116 5.546 3.77202C4.15948 5.58566 3.35943 8.41173 3.35943 11.5588C3.35943 12.8391 3.65321 14.0652 4.18657 15.159C3.43965 15.3194 2.71983 15.532 2 15.8257L2.29378 16.5726C3.0407 16.2789 3.81364 16.0664 4.58766 15.9059C4.85434 16.3331 5.14811 16.7591 5.49395 17.1331C4.77412 17.5602 4.0543 18.0394 3.41362 18.5728L3.91989 19.1863C4.61369 18.6259 5.33351 18.1467 6.10646 17.7196C7.0659 18.5998 8.26596 19.2666 9.62638 19.6666C10.4264 19.8801 11.2265 19.9864 12.0536 19.9864C14.3475 19.9864 16.4266 19.1061 17.9737 17.6925C18.7466 18.1196 19.4935 18.6259 20.1873 19.1863L20.6936 18.5728C20.0269 18.0394 19.3071 17.5331 18.5601 17.1331C18.907 16.7602 19.1997 16.3602 19.4664 15.9059C20.2133 16.0935 20.9604 16.306 21.7062 16.5997ZM17.7601 16.7602C17.1737 16.4664 16.5872 16.2268 15.9736 15.9872L15.7069 16.7341C16.1872 16.9206 16.6674 17.1071 17.1466 17.3206C15.76 18.4936 13.9464 19.1874 11.9735 19.1874C11.2266 19.1874 10.4797 19.0811 9.75983 18.8936C8.63998 18.5738 7.62638 18.0404 6.77327 17.3206C7.25351 17.081 7.73375 16.8935 8.24001 16.707L7.97333 15.9601C7.35975 16.1737 6.74617 16.4404 6.15969 16.7331C5.86591 16.4133 5.59923 16.0935 5.35965 15.7466C5.94613 15.6664 6.55971 15.6132 7.17329 15.5861L7.14621 14.7861C6.39929 14.8132 5.65237 14.8924 4.93254 14.9997C4.39918 13.96 4.1054 12.8131 4.1054 11.56C4.1054 8.59931 4.85232 5.9325 6.1326 4.25348C6.23886 4.12014 6.31907 4.12014 6.39929 4.12014C7.14621 4.22639 8.55983 6.35983 9.2525 8.09315L9.38584 8.41295L9.70565 8.33274C11.1724 8.01294 12.7997 8.01294 14.2664 8.33274L14.5862 8.41295L14.7196 8.11918C15.4925 6.33263 16.853 4.2251 17.5728 4.14617C17.6259 4.14617 17.7332 4.14617 17.8395 4.27951C19.1197 5.95981 19.8667 8.59947 19.8667 11.586C19.8667 12.8132 19.5469 13.9862 19.0135 14.9998C18.2937 14.8665 17.5468 14.8133 16.7998 14.7863L16.7728 15.5863C17.3592 15.6134 17.9728 15.6665 18.5593 15.7467C18.2937 16.1197 18.0268 16.4393 17.7601 16.7602Z" fill="currentColor" stroke="currentColor" stroke-width="0.4"/>
<path d="M9.83885 12.76C9.51904 12.3069 8.95859 12.0131 8.3721 12.0131C7.7054 12.0131 7.09182 12.36 6.82514 12.8934L6.63867 13.2403L7.3585 13.5872L7.54497 13.2403C7.67831 12.9736 8.02521 12.7871 8.39813 12.7871C8.74503 12.7871 9.03774 12.9476 9.19817 13.1601L9.41173 13.507L10.0784 13.0538L9.83885 12.76Z" fill="currentColor" stroke="currentColor" stroke-width="0.4"/>
<path d="M17.1467 12.9193C16.88 12.3859 16.2664 12.039 15.5997 12.039C14.9862 12.039 14.4268 12.3328 14.133 12.7859L13.9194 13.1328L14.5861 13.586L14.7997 13.2391C14.9601 12.9995 15.2528 12.8661 15.5997 12.8661C15.9727 12.8661 16.2935 13.0526 16.4529 13.3193L16.6394 13.6662L17.3592 13.3193L17.1467 12.9193Z" fill="currentColor" stroke="currentColor" stroke-width="0.4"/>
</svg>
