<svg width="24" height="24" viewBox="0 0 24 24" fill="none" xmlns="http://www.w3.org/2000/svg">
<path d="M19.844 11.4738C19.436 10.0338 18.644 8.75381 17.544 7.72981C17.624 7.50181 17.68 7.29382 17.716 7.14181C17.828 6.68982 17.944 6.10581 17.828 5.60982C17.74 5.22582 17.472 4.72581 16.7 4.53381C15.94 4.34581 14.86 4.60581 14.108 4.97781C14 4.91381 13.884 4.85782 13.756 4.82582C13.628 4.79382 13.5 4.78981 13.376 4.79381C12.884 4.11381 12.052 3.37382 11.296 3.18582C9.724 2.79382 9.324 4.40582 9.172 5.00982C9.092 5.33382 9.012 5.72982 9.016 6.10982C6.64 7.04581 4.852 9.01381 4.156 11.4698C2.96 11.5178 2 12.5058 2 13.7098C2 14.9178 2.96 15.9018 4.156 15.9458C5.148 19.4538 8.328 21.8738 12 21.8738C15.672 21.8738 18.852 19.4538 19.844 15.9458C21.04 15.9018 22 14.9138 22 13.7098C22 12.5058 21.04 11.5178 19.844 11.4738ZM14.696 6.39381C14.76 6.12981 14.74 5.86181 14.644 5.61381C15.284 5.33781 16.064 5.20181 16.508 5.31381C16.912 5.41381 17.008 5.61381 17.052 5.79381C17.132 6.12981 17.028 6.61381 16.944 6.95381C16.644 8.16581 16.308 8.32581 15.792 8.19781C15.352 8.08581 14.728 7.60181 14.288 7.05781C14.488 6.88181 14.632 6.65381 14.696 6.39381ZM12.968 5.96181C13 5.83381 13.08 5.72981 13.192 5.66181C13.268 5.61381 13.356 5.58981 13.444 5.58981C13.484 5.58981 13.524 5.59382 13.564 5.60581C13.692 5.63781 13.796 5.71781 13.864 5.82981C13.932 5.94181 13.952 6.07381 13.92 6.20181C13.888 6.32981 13.808 6.43381 13.696 6.50181C13.584 6.56981 13.452 6.58981 13.324 6.55782C13.196 6.52582 13.092 6.44581 13.024 6.33381C12.956 6.22181 12.936 6.08981 12.968 5.96181ZM9.948 5.20982C10.248 3.99782 10.584 3.83781 11.1 3.96581C11.54 4.07781 12.164 4.56182 12.604 5.10582C12.404 5.27782 12.26 5.50582 12.192 5.76981C12.128 6.03381 12.148 6.30181 12.244 6.54981C11.604 6.82581 10.824 6.95781 10.38 6.84981C9.976 6.74981 9.88 6.54981 9.836 6.36981C9.76 6.03381 9.864 5.54581 9.948 5.20982ZM19.764 15.1458C19.724 15.1458 19.688 15.1378 19.652 15.1338L19.592 15.1258C19.392 15.1018 19.2 15.2298 19.156 15.4298C18.356 18.7538 15.416 21.0738 12 21.0738C8.584 21.0738 5.644 18.7538 4.848 15.4298C4.8 15.2338 4.612 15.1018 4.412 15.1258L4.352 15.1338C4.316 15.1378 4.28 15.1458 4.24 15.1458C3.444 15.1458 2.8 14.5018 2.8 13.7098C2.8 12.9178 3.444 12.2738 4.236 12.2738C4.276 12.2738 4.312 12.2818 4.348 12.2858L4.408 12.2938C4.608 12.3178 4.8 12.1898 4.844 11.9898C5.4 9.67781 7.016 7.80181 9.196 6.90181C9.352 7.19781 9.644 7.48581 10.192 7.62181C10.368 7.66581 10.56 7.68581 10.76 7.68581C11.432 7.68581 12.208 7.46582 12.788 7.18182C12.896 7.24582 13.012 7.30181 13.136 7.33381C13.24 7.35781 13.344 7.37382 13.452 7.37382C13.476 7.37382 13.5 7.36981 13.52 7.36981C14.012 8.04581 14.84 8.78581 15.6 8.97381C15.768 9.01381 15.92 9.03381 16.06 9.03381C16.564 9.03381 16.916 8.78981 17.164 8.46981C18.148 9.43781 18.832 10.6458 19.156 11.9898C19.204 12.1858 19.392 12.3178 19.592 12.2938L19.652 12.2858C19.688 12.2818 19.728 12.2738 19.764 12.2738C20.556 12.2738 21.2 12.9178 21.2 13.7098C21.2 14.5018 20.556 15.1458 19.764 15.1458Z" fill="currentColor" stroke="currentColor" stroke-width="0.4"/>
<path d="M14.2036 16.7818C12.8236 17.4858 11.1756 17.4858 9.79561 16.7818C9.59961 16.6818 9.35961 16.7578 9.25561 16.9578C9.15161 17.1578 9.23161 17.3938 9.43161 17.4978C10.2356 17.9058 11.1156 18.1138 11.9996 18.1138C12.8836 18.1138 13.7636 17.9098 14.5676 17.4978C14.7636 17.3978 14.8436 17.1578 14.7436 16.9578C14.6396 16.7578 14.3996 16.6778 14.2036 16.7818Z" fill="currentColor" stroke="currentColor" stroke-width="0.4"/>
<path d="M14.716 10.6859C13.724 10.6859 12.916 11.4939 12.916 12.4859C12.916 12.7059 13.096 12.8859 13.316 12.8859C13.536 12.8859 13.716 12.7059 13.716 12.4859C13.716 11.9339 14.164 11.4859 14.716 11.4859C15.268 11.4859 15.716 11.9339 15.716 12.4859C15.716 12.7059 15.896 12.8859 16.116 12.8859C16.336 12.8859 16.516 12.7059 16.516 12.4859C16.516 11.4939 15.708 10.6859 14.716 10.6859Z" fill="currentColor" stroke="currentColor" stroke-width="0.4"/>
<path d="M10.2839 12.4859C10.2839 12.7059 10.4639 12.8859 10.6839 12.8859C10.9039 12.8859 11.0839 12.7059 11.0839 12.4859C11.0839 11.4939 10.2759 10.6859 9.28389 10.6859C8.29189 10.6859 7.48389 11.4939 7.48389 12.4859C7.48389 12.7059 7.66389 12.8859 7.88389 12.8859C8.10389 12.8859 8.28389 12.7059 8.28389 12.4859C8.28389 11.9339 8.73189 11.4859 9.28389 11.4859C9.83589 11.4859 10.2839 11.9339 10.2839 12.4859Z" fill="currentColor" stroke="currentColor" stroke-width="0.4"/>
</svg>
