<svg width="24" height="24" viewBox="0 0 24 24" fill="none" xmlns="http://www.w3.org/2000/svg">
<path d="M4.89775 13.5289H3.40788C3.32688 13.529 3.24922 13.5612 3.19197 13.6185C3.13473 13.6758 3.10257 13.7535 3.10257 13.8345V18.2834C3.10257 18.3643 3.13473 18.442 3.19197 18.4993C3.24922 18.5566 3.32688 18.5888 3.40788 18.5889H4.89775C4.93788 18.5889 4.97761 18.581 5.01468 18.5656C5.05176 18.5503 5.08544 18.5278 5.11381 18.4994C5.14219 18.471 5.16469 18.4374 5.18005 18.4003C5.1954 18.3632 5.20331 18.3235 5.20331 18.2834V13.8345C5.20331 13.7535 5.17112 13.6757 5.11381 13.6184C5.05651 13.5611 4.97879 13.5289 4.89775 13.5289ZM4.5922 17.9778H3.71343V14.14H4.59196L4.5922 17.9778ZM7.76385 15.3926H6.27446C6.19342 15.3926 6.1157 15.4248 6.0584 15.4821C6.00109 15.5394 5.9689 15.6171 5.9689 15.6981V18.2836C5.9689 18.3646 6.00109 18.4424 6.0584 18.4997C6.1157 18.557 6.19342 18.5892 6.27446 18.5892H7.76385C7.84488 18.5892 7.9226 18.557 7.97991 18.4997C8.03721 18.4424 8.0694 18.3646 8.0694 18.2836V15.6989C8.0695 15.6587 8.06166 15.6189 8.04635 15.5817C8.03104 15.5445 8.00855 15.5108 7.98016 15.4823C7.95178 15.4539 7.91807 15.4313 7.88095 15.4159C7.84383 15.4005 7.80403 15.3926 7.76385 15.3926ZM7.45829 17.978H6.58001V16.0037H7.45829V17.978ZM10.6302 11.9904H9.14079C9.05975 11.9904 8.98203 12.0226 8.92473 12.0799C8.86743 12.1372 8.83524 12.2149 8.83524 12.296V18.2836C8.83524 18.3646 8.86743 18.4424 8.92473 18.4997C8.98203 18.557 9.05975 18.5892 9.14079 18.5892H10.6302C10.7112 18.5892 10.7889 18.557 10.8462 18.4997C10.9035 18.4424 10.9357 18.3646 10.9357 18.2836V12.296C10.9357 12.2149 10.9035 12.1372 10.8462 12.0799C10.7889 12.0226 10.7112 11.9904 10.6302 11.9904ZM10.3244 17.978H9.44635V12.6015H10.3244V17.978ZM13.4965 12.9398H12.0071C11.9261 12.9398 11.8484 12.972 11.7911 13.0293C11.7338 13.0866 11.7016 13.1643 11.7016 13.2454V18.2836C11.7016 18.3646 11.7338 18.4424 11.7911 18.4997C11.8484 18.557 11.9261 18.5892 12.0071 18.5892H13.4965C13.5776 18.5892 13.6553 18.557 13.7126 18.4997C13.7699 18.4424 13.8021 18.3646 13.8021 18.2836V13.2454C13.8021 13.2053 13.7942 13.1655 13.7789 13.1284C13.7635 13.0913 13.741 13.0576 13.7126 13.0293C13.6843 13.0009 13.6506 12.9784 13.6135 12.963C13.5764 12.9477 13.5367 12.9398 13.4965 12.9398ZM13.1912 17.978H12.3127V13.5509H13.1912V17.978ZM3.10257 6.48043C3.10257 6.39944 3.13473 6.32176 3.19197 6.26446C3.24922 6.20716 3.32688 6.17494 3.40788 6.17488H4.53231C4.61335 6.17488 4.69107 6.20707 4.74837 6.26437C4.80567 6.32168 4.83787 6.39939 4.83787 6.48043C4.83787 6.56147 4.80567 6.63919 4.74837 6.69649C4.69107 6.75379 4.61335 6.78599 4.53231 6.78599H3.40788C3.36776 6.78599 3.32804 6.77808 3.29098 6.76272C3.25392 6.74736 3.22026 6.72485 3.1919 6.69648C3.16355 6.6681 3.14107 6.63441 3.12574 6.59734C3.11041 6.56027 3.10253 6.52055 3.10257 6.48043ZM8.82815 6.48043C8.82818 6.52057 8.8203 6.56032 8.80496 6.5974C8.78961 6.63449 8.76711 6.66818 8.73873 6.69656C8.71035 6.72494 8.67665 6.74745 8.63956 6.76279C8.60248 6.77814 8.56273 6.78602 8.5226 6.78599H5.8809C5.79987 6.78599 5.72215 6.75379 5.66484 6.69649C5.60754 6.63919 5.57535 6.56147 5.57535 6.48043C5.57535 6.39939 5.60754 6.32168 5.66484 6.26437C5.72215 6.20707 5.79987 6.17488 5.8809 6.17488H8.5226C8.60363 6.17488 8.68135 6.20707 8.73866 6.26437C8.79596 6.32168 8.82815 6.39939 8.82815 6.48043ZM15.6591 8.4724C15.6067 8.59808 15.5797 8.73294 15.5799 8.86913C15.5799 9.01598 15.6112 9.16115 15.6716 9.295C15.732 9.42886 15.8202 9.54835 15.9302 9.64555C16.0403 9.74276 16.1698 9.81545 16.3101 9.85882C16.4504 9.90218 16.5983 9.91523 16.7441 9.89709C16.8898 9.87896 17.03 9.83005 17.1554 9.75362C17.2808 9.67719 17.3885 9.57498 17.4714 9.45376C17.5543 9.33255 17.6105 9.19509 17.6362 9.05051C17.662 8.90593 17.6567 8.75754 17.6208 8.61515L19.0214 7.76205C19.2065 7.92548 19.4441 8.01711 19.6911 8.02031C19.938 8.0235 20.1779 7.93804 20.3672 7.77945C20.5565 7.62086 20.6826 7.39965 20.7228 7.15598C20.7629 6.91231 20.7143 6.66233 20.5858 6.45144C20.4573 6.24054 20.2575 6.0827 20.0226 6.00657C19.7876 5.93045 19.5332 5.94109 19.3054 6.03656C19.0777 6.13203 18.8917 6.306 18.7813 6.52688C18.6709 6.74777 18.6433 7.00093 18.7036 7.24041L17.3032 8.09351C17.1335 7.94275 16.9187 7.85212 16.6923 7.83564C16.4658 7.81916 16.2403 7.87774 16.0505 8.00233L15.2697 7.35505C15.3341 7.19981 15.3598 7.03122 15.3446 6.86384C15.3293 6.69645 15.2736 6.53529 15.1821 6.39425C15.0907 6.25322 14.9663 6.13654 14.8198 6.05428C14.6732 5.97202 14.5088 5.92665 14.3408 5.92209C14.1728 5.91752 14.0062 5.9539 13.8553 6.02807C13.7045 6.10225 13.574 6.21201 13.475 6.34787C13.3761 6.48374 13.3117 6.64163 13.2874 6.80794C13.263 6.97425 13.2795 7.14398 13.3354 7.30249L11.6732 8.53375C11.4733 8.38712 11.2275 8.31705 10.9803 8.33628C10.7331 8.35551 10.5011 8.46275 10.3263 8.63853C10.1514 8.81431 10.0455 9.04696 10.0276 9.29422C10.0098 9.54148 10.0812 9.78695 10.2289 9.98604C10.3766 10.1851 10.5909 10.3246 10.8327 10.3792C11.0745 10.4337 11.3279 10.3997 11.5468 10.2834C11.7657 10.167 11.9356 9.97598 12.0256 9.745C12.1157 9.51402 12.1198 9.2584 12.0374 9.02459L13.6996 7.79309C13.8695 7.91825 14.0736 7.98841 14.2845 7.99414C14.4954 7.99986 14.703 7.94088 14.8793 7.82511L15.6591 8.4724ZM19.7073 6.5611C19.7915 6.56105 19.8737 6.58595 19.9437 6.63266C20.0137 6.67937 20.0682 6.74578 20.1004 6.82349C20.1327 6.90121 20.1411 6.98673 20.1248 7.06926C20.1084 7.15178 20.0679 7.22759 20.0084 7.2871C19.9489 7.3466 19.8731 7.38714 19.7906 7.40357C19.7081 7.42 19.6226 7.41159 19.5449 7.37941C19.4671 7.34722 19.4007 7.29271 19.3539 7.22276C19.3072 7.1528 19.2822 7.07056 19.2822 6.98643C19.2824 6.87371 19.3272 6.76563 19.4069 6.6859C19.4866 6.60617 19.5946 6.56129 19.7073 6.5611ZM16.6161 8.44331C16.7002 8.44326 16.7824 8.46815 16.8524 8.51484C16.9224 8.56152 16.9769 8.6279 17.0092 8.70559C17.0414 8.78328 17.0499 8.86878 17.0336 8.95129C17.0172 9.03379 16.9768 9.10961 16.9174 9.16913C16.8579 9.22866 16.7822 9.26923 16.6997 9.28572C16.6172 9.3022 16.5317 9.29387 16.454 9.26176C16.3762 9.22965 16.3098 9.17521 16.2629 9.10532C16.2161 9.03543 16.1911 8.95324 16.191 8.86913C16.1911 8.75643 16.236 8.64838 16.3157 8.56869C16.3953 8.489 16.5034 8.44417 16.6161 8.44404V8.44331ZM11.0604 9.79361C10.9764 9.79361 10.8942 9.7687 10.8243 9.72202C10.7544 9.67534 10.6999 9.609 10.6677 9.53137C10.6355 9.45373 10.6271 9.3683 10.6434 9.28586C10.6598 9.20342 10.7002 9.12768 10.7596 9.0682C10.8189 9.00872 10.8946 8.96818 10.977 8.9517C11.0594 8.93521 11.1449 8.94352 11.2226 8.97559C11.3003 9.00765 11.3667 9.06202 11.4135 9.13183C11.4603 9.20163 11.4853 9.28375 11.4855 9.36779C11.4856 9.48062 11.4408 9.58885 11.3611 9.6687C11.2814 9.74855 11.1732 9.79348 11.0604 9.79361ZM13.8866 6.95807C13.8866 6.874 13.9116 6.79181 13.9583 6.72191C14.005 6.652 14.0714 6.59752 14.1491 6.56535C14.2267 6.53317 14.3122 6.52475 14.3947 6.54116C14.4771 6.55756 14.5529 6.59804 14.6123 6.65749C14.6718 6.71694 14.7122 6.79268 14.7287 6.87514C14.7451 6.9576 14.7366 7.04307 14.7045 7.12075C14.6723 7.19842 14.6178 7.26481 14.5479 7.31152C14.478 7.35823 14.3958 7.38316 14.3117 7.38316C14.1991 7.38303 14.0911 7.33824 14.0114 7.2586C13.9317 7.17896 13.8868 7.07098 13.8866 6.95832V6.95807ZM22.1207 12.6079V4.66862C22.1207 4.58758 22.0885 4.50987 22.0312 4.45256C21.9739 4.39526 21.8962 4.36307 21.8151 4.36307H1.80629C1.76609 4.36294 1.72626 4.37075 1.68909 4.38605C1.65192 4.40135 1.61814 4.42384 1.58968 4.45223C1.56122 4.48062 1.53865 4.51435 1.52326 4.55148C1.50787 4.58862 1.49997 4.62843 1.5 4.66862V19.8397C1.5 19.9208 1.53219 19.9985 1.58949 20.0558C1.6468 20.1131 1.72452 20.1453 1.80555 20.1453H17.5452C17.5802 20.1452 17.6148 20.1391 17.6476 20.1272C18.6141 20.4343 19.6561 20.4054 20.604 20.0451C21.5519 19.6848 22.35 19.0144 22.8685 18.1429C23.387 17.2713 23.5953 16.25 23.4596 15.2451C23.3238 14.2401 22.8518 13.3106 22.1207 12.6079ZM22.8887 15.8433C22.8894 16.4215 22.7601 16.9923 22.5106 17.5138L20.8354 16.5476C20.9406 16.2746 20.9834 15.9815 20.9607 15.6899C20.938 15.3982 20.8503 15.1153 20.704 14.862C20.5578 14.6086 20.3567 14.3912 20.1155 14.2256C19.8743 14.06 19.5991 13.9505 19.3101 13.9051V11.9728C20.2838 12.0502 21.1927 12.4914 21.8559 13.2087C22.519 13.9259 22.8878 14.8665 22.8887 15.8433ZM15.1238 15.8433C15.1247 14.8669 15.4931 13.9266 16.1558 13.2094C16.8184 12.4923 17.7267 12.0508 18.7 11.9728V13.9051C18.411 13.9505 18.1358 14.06 17.8946 14.2256C17.6534 14.3912 17.4523 14.6086 17.3061 14.862C17.1598 15.1153 17.0721 15.3982 17.0494 15.6899C17.0266 15.9815 17.0694 16.2746 17.1746 16.5476L15.5012 17.5138C15.2516 16.9923 15.1224 16.4215 15.123 15.8433H15.1238ZM17.6552 15.8433C17.6552 15.5761 17.7345 15.3149 17.8829 15.0927C18.0314 14.8706 18.2424 14.6974 18.4892 14.5951C18.7361 14.4929 19.0078 14.4661 19.2698 14.5182C19.5319 14.5704 19.7726 14.6991 19.9616 14.888C20.1505 15.0769 20.2792 15.3177 20.3313 15.5798C20.3835 15.8418 20.3567 16.1135 20.2545 16.3603C20.1522 16.6072 19.979 16.8182 19.7569 16.9667C19.5347 17.1151 19.2735 17.1944 19.0063 17.1944C18.6479 17.1942 18.3043 17.0518 18.0509 16.7985C17.7974 16.5452 17.6549 16.2016 17.6545 15.8433H17.6552ZM2.11111 19.5342V4.97418H21.5096V12.1139C20.5255 11.4489 19.318 11.2007 18.1514 11.4237C16.9848 11.6466 15.954 12.3226 15.2844 13.3036C14.6149 14.2846 14.3612 15.4909 14.5788 16.6586C14.7963 17.8262 15.4675 18.8601 16.4455 19.5342H2.11111ZM19.0048 19.7258C18.3752 19.7257 17.7551 19.5723 17.198 19.279C16.6408 18.9857 16.1635 18.5613 15.807 18.0423L17.4802 17.0763C17.6638 17.3039 17.896 17.4876 18.1598 17.6138C18.4236 17.7399 18.7124 17.8054 19.0048 17.8054C19.2972 17.8054 19.586 17.7399 19.8498 17.6138C20.1136 17.4876 20.3458 17.3039 20.5294 17.0763L22.2043 18.0423C21.8477 18.5614 21.3702 18.986 20.8129 19.2793C20.2556 19.5726 19.6353 19.7258 19.0055 19.7258H19.0048ZM3.10183 8.33478C3.10183 8.25378 3.13399 8.1761 3.19124 8.1188C3.24849 8.06151 3.32615 8.02929 3.40714 8.02922H4.53158C4.61262 8.02922 4.69034 8.06141 4.74764 8.11872C4.80494 8.17602 4.83713 8.25374 4.83713 8.33478C4.83713 8.41581 4.80494 8.49353 4.74764 8.55083C4.69034 8.60814 4.61262 8.64033 4.53158 8.64033H3.40714C3.32632 8.64007 3.24889 8.6078 3.1918 8.55058C3.13472 8.49335 3.10263 8.41585 3.10257 8.33502L3.10183 8.33478ZM8.82742 8.33478C8.82742 8.41581 8.79522 8.49353 8.73792 8.55083C8.68062 8.60814 8.6029 8.64033 8.52186 8.64033H5.8809C5.79987 8.64033 5.72215 8.60814 5.66484 8.55083C5.60754 8.49353 5.57535 8.41581 5.57535 8.33478C5.57535 8.25374 5.60754 8.17602 5.66484 8.11872C5.72215 8.06141 5.79987 8.02922 5.8809 8.02922H8.5226C8.56274 8.02922 8.6025 8.03713 8.63958 8.0525C8.67667 8.06788 8.71036 8.0904 8.73874 8.1188C8.76712 8.1472 8.78962 8.18092 8.80496 8.21801C8.8203 8.25511 8.82818 8.29487 8.82815 8.33502L8.82742 8.33478ZM3.10257 10.1894C3.10257 10.1084 3.13473 10.0307 3.19197 9.97339C3.24922 9.91609 3.32688 9.88387 3.40788 9.88381H4.53231C4.61335 9.88381 4.69107 9.916 4.74837 9.9733C4.80567 10.0306 4.83787 10.1083 4.83787 10.1894C4.83787 10.2704 4.80567 10.3481 4.74837 10.4054C4.69107 10.4627 4.61335 10.4949 4.53231 10.4949H3.40788C3.36776 10.4949 3.32804 10.487 3.29098 10.4717C3.25392 10.4563 3.22026 10.4338 3.1919 10.4054C3.16355 10.377 3.14107 10.3433 3.12574 10.3063C3.11041 10.2692 3.10253 10.2295 3.10257 10.1894ZM8.82815 10.1894C8.82818 10.2295 8.8203 10.2692 8.80496 10.3063C8.78961 10.3434 8.76711 10.3771 8.73873 10.4055C8.71035 10.4339 8.67665 10.4564 8.63956 10.4717C8.60248 10.4871 8.56273 10.4949 8.5226 10.4949H5.8809C5.79987 10.4949 5.72215 10.4627 5.66484 10.4054C5.60754 10.3481 5.57535 10.2704 5.57535 10.1894C5.57535 10.1083 5.60754 10.0306 5.66484 9.9733C5.72215 9.916 5.79987 9.88381 5.8809 9.88381H8.5226C8.60363 9.88381 8.68135 9.916 8.73866 9.9733C8.79596 10.0306 8.82815 10.1083 8.82815 10.1894Z" fill="currentColor" stroke="currentColor" stroke-width="0.4"/>
</svg>
