<svg width="19" height="20" viewBox="0 0 19 20" fill="none" xmlns="http://www.w3.org/2000/svg">
<path d="M5.53614 16.4394C5.15836 16.4394 4.83564 16.3056 4.56796 16.038C4.30041 15.7704 4.16663 15.4476 4.16663 15.0699V5.45451H3.40906V4.31815H6.81815V3.64807H11.3636V4.31815H14.7727V5.45451H14.0151V15.0699C14.0151 15.4526 13.8825 15.7765 13.6174 16.0416C13.3522 16.3068 13.0283 16.4394 12.6456 16.4394H5.53614ZM12.8788 5.45451H5.303V15.0699C5.303 15.1379 5.32484 15.1938 5.36853 15.2375C5.41221 15.2812 5.46809 15.303 5.53614 15.303H12.6456C12.7039 15.303 12.7574 15.2787 12.8058 15.2301C12.8544 15.1816 12.8788 15.1282 12.8788 15.0699V5.45451ZM7.12421 13.7878H8.26038V6.96966H7.12421V13.7878ZM9.92137 13.7878H11.0575V6.96966H9.92137V13.7878Z" fill="currentColor" stroke="currentColor"/>
</svg>
