<svg width="24" height="24" viewBox="0 0 24 24" fill="none" xmlns="http://www.w3.org/2000/svg">
<path d="M21.733 11.3002C21.4267 10.432 21.0175 9.61379 20.354 8.61796C18.4381 5.14337 15.7559 4.42914 12.052 4.42914C8.39881 4.42914 5.56411 5.14459 3.64826 8.61796C2.98369 9.61379 2.57559 10.432 2.26925 11.3002C1.88608 12.4497 1.91204 13.5992 2.34609 14.4932C2.78014 15.3614 3.24015 15.8982 4.08333 16.4859C4.38966 16.7154 4.90056 17.0737 5.48829 16.9709C5.74374 16.92 5.9483 16.7923 6.10095 16.6386C6.15184 16.92 6.25462 17.2004 6.53501 17.6095C7.71047 19.3208 9.44659 20.138 11.9763 20.138C14.5816 20.138 16.4466 19.218 17.6222 17.3281C17.8008 17.0467 17.8776 16.919 17.9285 16.7663C18.0822 16.894 18.2608 16.9958 18.4903 17.0477C18.5671 17.0477 18.644 17.0737 18.7198 17.0737C19.2307 17.0737 19.6398 16.7673 19.9202 16.5628C20.6865 16.0259 21.1715 15.4132 21.6315 14.4932C22.0905 13.5992 22.1164 12.5005 21.7333 11.3001L21.733 11.3002ZM20.9407 14.1609C20.5316 14.9781 20.1235 15.489 19.4589 15.949C19.1775 16.1536 18.8712 16.3322 18.6157 16.3062C18.3603 16.2554 18.2066 15.949 18.028 15.4631C18.002 15.3862 17.9771 15.3094 17.9512 15.2336C17.4662 14.0841 17.1848 12.9086 16.9034 11.759C16.7757 11.1712 16.622 10.5835 16.4434 9.97085L15.703 10.1754C15.8567 10.7631 16.0093 11.3509 16.163 11.9126C16.4444 13.0881 16.7248 14.2885 17.2616 15.515C17.2876 15.5918 17.3125 15.6427 17.3385 15.7195C17.3644 15.7455 17.3644 15.7964 17.3894 15.8213C17.3385 15.9999 17.3125 16.1276 17.2876 16.2304C17.2367 16.4859 17.2367 16.4859 16.9813 16.895C15.9595 18.5294 14.3251 19.3477 12 19.3477C9.72697 19.3736 8.19439 18.6831 7.17261 17.2023C6.91716 16.8192 6.86627 16.6146 6.81539 16.2574C6.78944 16.0788 6.7645 15.8742 6.68766 15.6188C6.71361 15.5679 6.73855 15.517 6.73855 15.4911C7.2235 14.3156 7.53085 13.0903 7.83718 11.9148C7.9649 11.353 8.11858 10.7912 8.27124 10.2284L7.55578 9.99694C7.37717 10.5847 7.24945 11.1465 7.09577 11.7082C6.78944 12.9086 6.50804 14.0332 6.04803 15.1568C6.02209 15.2336 5.99714 15.2845 5.9712 15.3613C5.79258 15.8213 5.63891 16.1536 5.38346 16.2045C5.12802 16.2554 4.84662 16.0508 4.54028 15.8473C3.82483 15.3364 3.44166 14.8764 3.05849 14.136C2.57355 13.1651 2.82898 12.0924 3.0076 11.5307C3.289 10.7384 3.67217 9.94712 4.31079 9.02711L4.33673 9.00116C5.86941 6.2173 7.96382 5.19551 12.077 5.19551C16.1642 5.19551 18.1817 6.19135 19.7144 9.00116L19.7403 9.02711C20.353 9.97205 20.7621 10.7384 21.0435 11.5307C21.1702 12.1174 21.4256 13.19 20.9407 14.1609Z" fill="currentColor" stroke="currentColor" stroke-width="0.4"/>
<path d="M10.2119 11.4787C10.2119 12.4665 8.6792 12.4665 8.6792 11.4787C8.6792 10.4908 10.2119 10.4908 10.2119 11.4787Z" fill="currentColor" stroke="currentColor" stroke-width="0.4"/>
<path d="M14.4775 10.7124C14.0435 10.7124 13.7112 11.0447 13.7112 11.4528C13.7112 11.8619 14.0684 12.1931 14.4775 12.1931C14.8866 12.1931 15.2439 11.8609 15.2439 11.4528C15.2439 11.0446 14.8866 10.7124 14.4775 10.7124Z" fill="currentColor" stroke="currentColor" stroke-width="0.4"/>
<path d="M14.5803 16.4599C14.3249 16.894 13.7631 17.1494 13.1245 17.1494C12.6904 17.1494 12.2813 17.0217 11.975 16.7922C11.6936 17.0217 11.2595 17.1494 10.8255 17.1494C10.1869 17.1494 9.62508 16.894 9.36963 16.4599L10.0082 16.0508C10.11 16.2045 10.3914 16.3831 10.8005 16.3831C11.1578 16.3831 11.4392 16.2554 11.5669 16.1017V15.4122L10.1619 13.8535H13.7642L12.3333 15.4122L12.3323 16.1276C12.4601 16.2813 12.7415 16.409 13.0987 16.409C13.5078 16.409 13.8141 16.2304 13.891 16.0768L14.5803 16.4599Z" fill="currentColor" stroke="currentColor" stroke-width="0.4"/>
</svg>
