<svg width="30" height="30" viewBox="0 0 30 30" fill="none" xmlns="http://www.w3.org/2000/svg">
<mask id="mask0_663_10735" style="mask-type:alpha" maskUnits="userSpaceOnUse" x="0" y="0" width="30" height="30">
<rect width="30" height="30" fill="#D9D9D9"/>
</mask>
<g mask="url(#mask0_663_10735)">
<path d="M6.25 23.75H7.82688L20.6225 10.9544L19.0456 9.3775L6.25 22.1731V23.75ZM4.375 25.625V21.3944L20.8631 4.91344C21.0521 4.74177 21.2607 4.60917 21.4891 4.51563C21.7176 4.42188 21.9572 4.375 22.2078 4.375C22.4584 4.375 22.7011 4.41948 22.9359 4.50844C23.1709 4.5974 23.379 4.73885 23.56 4.93281L25.0866 6.47844C25.2805 6.65948 25.4187 6.86781 25.5012 7.10344C25.5837 7.33906 25.625 7.57469 25.625 7.81031C25.625 8.06177 25.5821 8.30167 25.4963 8.53C25.4104 8.75854 25.2739 8.96729 25.0866 9.15625L8.60563 25.625H4.375ZM19.8203 10.1797L19.0456 9.3775L20.6225 10.9544L19.8203 10.1797Z" fill="#030612"/>
</g>
</svg>
