<svg width="24" height="24" viewBox="0 0 24 24" fill="none" xmlns="http://www.w3.org/2000/svg">
<path d="M14.6676 10.5826C13.9082 9.82139 12.7123 9.75495 11.8751 10.3795C11.0379 9.75495 9.84188 9.82139 9.08253 10.5826C8.24723 11.4179 8.24723 12.7753 9.08253 13.6106L11.6397 16.1677C11.7688 16.2968 11.9795 16.2968 12.1086 16.1677L14.6657 13.6106C15.501 12.7753 15.501 11.4179 14.6657 10.5826H14.6676ZM14.1987 13.1398L11.8751 15.4634L9.55143 13.1398C8.97621 12.5646 8.97621 11.6268 9.55143 11.0516C9.83998 10.763 10.2178 10.6206 10.5955 10.6206C10.9733 10.6206 11.3511 10.7649 11.6397 11.0516C11.7688 11.1806 11.9795 11.1806 12.1086 11.0516C12.6838 10.4763 13.6216 10.4763 14.1968 11.0516C14.772 11.6268 14.772 12.5646 14.1968 13.1398H14.1987Z" fill="currentColor" stroke="currentColor" stroke-width="0.4"/>
<path d="M19.6375 18.4458H18.6067V10.5865L18.789 10.7175C19.3566 11.118 20.1235 10.9775 20.5184 10.4327C20.5184 10.4327 20.5184 10.4327 20.5184 10.4308C20.9152 9.87457 20.7861 9.09812 20.2298 8.69946L18.0809 7.15986V3.35168C18.0809 3.16753 17.9328 3.01946 17.7486 3.01946H14.7738C14.5897 3.01946 14.4416 3.16753 14.4416 3.35168V4.55526L12.5945 3.23208C12.1636 2.92264 11.5826 2.92264 11.1517 3.23208L3.51826 8.69946C2.96393 9.09622 2.83484 9.87267 3.2316 10.4308C3.63027 10.9851 4.40671 11.1142 4.96294 10.7156L5.14329 10.5865V18.4458H4.11246C3.49928 18.4458 3 18.9451 3 19.5583V19.6589C3 20.2721 3.49928 20.7714 4.11246 20.7714H19.6375C20.2507 20.7714 20.75 20.2721 20.75 19.6589V19.5583C20.75 18.9451 20.2507 18.4458 19.6375 18.4458ZM15.108 3.6839H17.4183V6.68336L15.108 5.02986V3.6839ZM4.57567 10.1764C4.31749 10.3625 3.95679 10.3017 3.77265 10.0454C3.5885 9.78534 3.64735 9.42465 3.90553 9.2405L11.5409 3.77122C11.7383 3.62884 12.0079 3.62694 12.2091 3.77122L19.8445 9.2386C20.1026 9.42275 20.1615 9.78344 19.9793 10.0435C19.8008 10.2903 19.4268 10.353 19.1743 10.1764C18.4757 9.67713 13.1526 5.86326 12.0686 5.08681C11.9699 5.01657 11.8029 4.99949 11.6814 5.08681L4.57567 10.1764ZM5.80773 10.1119L11.875 5.76454C15.6585 8.47545 16.0705 8.77539 17.9423 10.1119V18.4458H5.80773V10.1119ZM20.0856 19.6589C20.0856 19.9057 19.8843 20.1069 19.6375 20.1069H4.11246C3.86567 20.1069 3.66444 19.9057 3.66444 19.6589V19.5583C3.66444 19.3115 3.86567 19.1103 4.11246 19.1103C6.94866 19.1103 17.7448 19.1103 19.6394 19.1103C19.8862 19.1103 20.0875 19.3115 20.0875 19.5583V19.6589H20.0856Z" fill="currentColor" stroke="currentColor" stroke-width="0.4"/>
</svg>
