<svg width="24" height="24" viewBox="0 0 24 24" fill="none" xmlns="http://www.w3.org/2000/svg">
<path fill-rule="evenodd" clip-rule="evenodd" d="M11.3479 2.5604C14.8692 2.08152 18.0773 4.49711 18.6085 7.99319C19.0879 11.4928 16.667 14.7268 13.1709 15.2297L12.7477 15.2912V18.3029H15.8222C16.1167 18.3033 16.3598 18.5461 16.3599 18.8407C16.3598 19.1353 16.1167 19.3781 15.8222 19.3784H12.7477V21.9622C12.7477 22.2569 12.5047 22.4997 12.2099 22.4999C11.9152 22.4998 11.671 22.257 11.671 21.9622V19.3784H8.80391C8.50926 19.3782 8.26625 19.1353 8.26617 18.8407C8.26629 18.546 8.50929 18.3031 8.80391 18.3029H11.6457V15.2731L11.2321 15.2056C8.53661 14.764 6.43187 12.704 5.95489 10.0537L5.91389 9.79447C5.4353 6.29668 7.85323 3.06411 11.3467 2.55919L11.3479 2.5604ZM12.3124 3.58884C9.72981 3.5891 7.60156 5.41233 7.1039 7.82439L6.96886 7.68935V8.91312C6.99754 11.8355 9.3794 14.2244 12.3124 14.1988L12.339 14.2C15.2964 14.1999 17.6572 11.81 17.6572 8.88177C17.657 5.94672 15.263 3.58884 12.3124 3.58884Z" fill="currentColor" stroke="currentColor" stroke-width="0.4"/>
</svg>
