<svg width="48" height="49" viewBox="0 0 48 49" fill="none" xmlns="http://www.w3.org/2000/svg">
<path d="M8.81531 10.5001C7.26843 10.5001 6 11.7643 6 13.3112V34.5047C6 36.0516 7.26843 37.3144 8.81531 37.3144H39.1889C40.7358 37.3144 42 36.0502 42 34.5047V15.5583C42 14.0888 40.7991 12.8836 39.3309 12.8836H21.1311L20.9272 12.2986C20.5545 11.2242 19.5364 10.5 18.3988 10.5L8.81531 10.5001ZM8.81531 11.6251H18.3989C19.0612 11.6251 19.6477 12.0413 19.8642 12.6671L21.6839 17.9238C21.7626 18.1502 21.975 18.3021 22.2141 18.3021H40.8736V34.505C40.8736 35.443 40.1269 36.1953 39.1889 36.1953L8.81531 36.1939C7.87733 36.1939 7.125 35.443 7.125 34.5036V13.3115C7.125 12.3735 7.87733 11.6251 8.81531 11.6251ZM21.5194 14.0087H39.3297C40.1903 14.0087 40.8737 14.6963 40.8737 15.5584V17.1784L22.6178 17.177L21.5194 14.0087Z" fill="#030612" stroke="#030612" stroke-width="0.6"/>
</svg>
