<svg width="48" height="49" viewBox="0 0 48 49" fill="none" xmlns="http://www.w3.org/2000/svg">
<path fill-rule="evenodd" clip-rule="evenodd" d="M20.9428 17.6124C21.2258 17.6124 21.5024 17.6963 21.7378 17.8536C21.9731 18.0108 22.1564 18.2343 22.2647 18.4957C22.373 18.7572 22.4013 19.0449 22.3461 19.3225C22.2908 19.6 22.1545 19.855 21.9544 20.0551C21.7542 20.2552 21.4993 20.3914 21.2217 20.4466C20.9441 20.5017 20.6564 20.4733 20.395 20.365C20.1335 20.2566 19.9101 20.0732 19.7529 19.8378C19.5958 19.6025 19.5119 19.3258 19.512 19.0428C19.5125 18.6635 19.6634 18.2999 19.9317 18.0317C20.1999 17.7634 20.5635 17.6129 20.9428 17.6124ZM20.9428 21.5988C21.4483 21.5989 21.9426 21.449 22.3629 21.1682C22.7833 20.8874 23.111 20.4883 23.3045 20.0212C23.498 19.5542 23.5487 19.0402 23.4501 18.5444C23.3516 18.0486 23.1082 17.5931 22.7507 17.2356C22.3933 16.8781 21.9378 16.6346 21.442 16.5359C20.9462 16.4373 20.4322 16.4879 19.9652 16.6813C19.4981 16.8748 19.0989 17.2024 18.818 17.6227C18.5371 18.0431 18.3872 18.5373 18.3872 19.0428C18.3884 19.7202 18.658 20.3696 19.137 20.8486C19.616 21.3276 20.2654 21.5976 20.9428 21.5988ZM8.6708 11.6252C8.26105 11.6255 7.86816 11.7884 7.57839 12.0781C7.28861 12.3678 7.12562 12.7606 7.1252 13.1704V31.1756L15.2696 23.0316C15.5732 22.7291 15.9842 22.5593 16.4128 22.5593C16.8414 22.5593 17.2524 22.7291 17.556 23.0316L20.7796 26.2556L28.2996 18.738C28.603 18.4351 29.0141 18.265 29.4428 18.265C29.8715 18.265 30.2826 18.4351 30.586 18.738L40.8748 29.0284V13.1704C40.8744 12.7607 40.7114 12.3679 40.4218 12.0782C40.1321 11.7886 39.7393 11.6256 39.3296 11.6252H8.6708ZM39.3296 36.4608C39.7393 36.4603 40.1321 36.2972 40.4218 36.0075C40.7115 35.7177 40.8744 35.3249 40.8748 34.9152V30.62L29.7888 19.5336C29.6964 19.4413 29.5712 19.3895 29.4406 19.3895C29.31 19.3895 29.1848 19.4413 29.0924 19.5336L21.1776 27.4488C21.072 27.5543 20.9289 27.6135 20.7796 27.6135C20.6304 27.6135 20.4872 27.5543 20.3816 27.4488L16.76 23.8272C16.6677 23.735 16.5426 23.6832 16.4122 23.6832C16.2818 23.6832 16.1567 23.735 16.0644 23.8272L7.1252 32.7664V34.9152C7.12562 35.325 7.2886 35.7179 7.57836 36.0076C7.86813 36.2974 8.26101 36.4604 8.6708 36.4608H39.3296ZM8.6708 37.5856H39.3296C40.0376 37.5848 40.7163 37.3031 41.2169 36.8025C41.7175 36.3019 41.9992 35.6232 42 34.9152V13.1704C41.9992 12.4624 41.7175 11.7837 41.2169 11.2831C40.7163 10.7825 40.0376 10.5008 39.3296 10.5H8.6708C7.96276 10.5007 7.28392 10.7823 6.78322 11.2829C6.28252 11.7836 6.00085 12.4624 6 13.1704V34.9152C6.00085 35.6232 6.28252 36.302 6.78322 36.8027C7.28392 37.3033 7.96276 37.5849 8.6708 37.5856Z" fill="#030612" stroke="#030612" stroke-width="1.2"/>
</svg>
