<svg width="24" height="24" viewBox="0 0 24 24" fill="none" xmlns="http://www.w3.org/2000/svg">
<path fill-rule="evenodd" clip-rule="evenodd" d="M20.5165 3.00375C20.6488 3.0038 20.776 3.05644 20.8696 3.15002C20.9632 3.24361 21.0158 3.37074 21.0159 3.5031V8.60516C21.0158 8.73739 20.9631 8.86471 20.8696 8.95825C20.776 9.0516 20.6487 9.10446 20.5165 9.10451C20.3842 9.1044 20.2569 9.05176 20.1634 8.95825C20.0699 8.8647 20.0172 8.73744 20.0171 8.60516V4.70977L14.362 10.3637L14.5529 10.6083C15.2948 11.5603 15.7548 12.7021 15.8795 13.9026C16.0041 15.1031 15.7884 16.3152 15.2579 17.3992C14.7272 18.4833 13.9022 19.3973 12.8777 20.0354C11.8532 20.6734 10.6692 21.0108 9.46224 21.0089C8.4347 21.011 7.41946 20.7679 6.50499 20.2993C5.59057 19.8307 4.80088 19.1498 4.20249 18.3145C3.60414 17.4791 3.21388 16.5121 3.06439 15.4955C2.91501 14.479 3.01062 13.4407 3.3432 12.4686C3.67585 11.4965 4.23647 10.6175 4.97723 9.90553C5.71819 9.19355 6.61953 8.66919 7.60424 8.37548C8.58903 8.08183 9.63039 8.0268 10.6403 8.21665C11.6502 8.4066 12.6005 8.8355 13.4113 9.46674L13.6559 9.65756L19.3098 4.00245H15.4144C15.2822 4.00235 15.1549 3.94973 15.0614 3.85619C14.9678 3.76265 14.9152 3.63536 14.9151 3.5031C14.9151 3.37092 14.968 3.24358 15.0614 3.15002C15.1549 3.05655 15.2822 3.00386 15.4144 3.00375H20.5165ZM9.46224 9.10451C8.01616 9.10462 6.62824 9.67943 5.6057 10.702C4.5836 11.7245 4.00942 13.1116 4.00938 14.5574C4.00945 15.6356 4.32911 16.69 4.92809 17.5866C5.52723 18.4832 6.37942 19.1827 7.37571 19.5954C8.37188 20.008 9.46855 20.1165 10.5261 19.9062C11.5835 19.6959 12.5552 19.1761 13.3176 18.4139C14.0801 17.6514 14.5995 16.6788 14.81 15.6212C15.0203 14.5636 14.9129 13.4671 14.5003 12.4708C14.0876 11.4744 13.3882 10.6224 12.4915 10.0232C11.5949 9.42422 10.5405 9.10454 9.46224 9.10451Z" fill="currentColor" stroke="currentColor" stroke-width="0.360104"/>
</svg>
