<svg width="24" height="24" viewBox="0 0 24 24" fill="none" xmlns="http://www.w3.org/2000/svg">
<path d="M22.5446 7.16511C21.5459 6.88783 19.7999 6.24987 19.4393 5.6119C18.8295 4.55802 17.7756 3.94822 16.6665 4.00346C15.4188 4.08686 14.3096 4.61325 13.7551 5.47326C13.6164 5.66714 13.5612 5.91735 13.4778 6.22169C13.3392 6.66578 13.2005 7.22034 12.8398 7.60809C11.6755 8.88402 9.87323 10.5747 7.98745 12.3218C6.71152 13.5414 5.40852 14.734 4.21589 15.8982C3.02337 17.0636 1.91425 18.2009 1 19.2547L1.44409 19.9197L6.7124 18.2008C7.90493 18.3676 9.26315 18.4499 10.5109 18.4228C10.6213 18.8106 10.6777 19.0608 10.7329 19.3099C10.7881 19.5038 10.8434 19.6976 10.8997 19.9749V20.7786H12.5352V19.9468H11.7586C11.6752 19.5861 11.5918 19.337 11.5366 19.1149C11.4813 18.8929 11.4261 18.699 11.3427 18.3935C11.62 18.3935 11.8691 18.3654 12.1193 18.3383L13.0345 20.0302V20.7786H14.67V19.9467H13.9487L13.0064 18.2278C13.1168 18.1997 13.2555 18.1726 13.367 18.1726C14.8087 17.8671 16.0846 17.1187 17.3593 15.8157C18.8844 14.2625 19.4107 11.9338 19.4942 10.7964V10.5191C19.4942 10.2137 19.5494 9.29954 19.7714 9.21613C20.2155 8.99409 20.9087 8.71681 21.4903 8.4677C22.0731 8.21858 22.5442 8.02361 22.5713 8.02361L22.5446 7.16511ZM18.6898 10.7146C18.6064 11.7403 18.1353 13.8481 16.8041 15.2062C15.6398 16.3987 14.5025 17.0638 13.2278 17.3411C12.1186 17.5631 10.3446 17.6465 8.65264 17.5349C10.2059 16.9522 11.3702 16.259 12.9222 14.9842C15.0018 13.3205 15.8336 11.4078 15.4177 9.27166L14.614 9.43847C14.9466 11.2408 14.1981 12.9045 12.3958 14.346C10.6217 15.7606 9.42919 16.4256 7.48823 17.0636L2.69102 18.6439C4.3547 16.8416 6.48947 14.8723 8.54217 12.9596C10.455 11.1855 12.2572 9.49364 13.4497 8.19071C13.9491 7.63615 14.1429 6.97112 14.2816 6.47179C14.3368 6.27792 14.3921 6.05587 14.4484 5.97247C14.9477 5.22404 15.9734 4.91858 16.7219 4.86335H16.8053C17.5537 4.86335 18.2751 5.30744 18.718 6.05587C18.718 6.05587 18.718 6.08404 18.7462 6.08404C18.9682 6.91587 18.8848 7.80295 18.8296 8.66296C18.8014 8.94024 18.691 10.1328 18.691 10.4371C18.6899 10.5476 18.6898 10.6312 18.6898 10.7146ZM19.6885 8.30246C19.7166 7.85836 19.7437 7.41538 19.7166 6.94423C20.1878 7.22151 20.7424 7.47062 21.2417 7.63743C20.7424 7.83131 20.1597 8.08044 19.6885 8.30246Z" fill= "currentColor" stroke="currentColor" stroke-width="0.4"/>
<path d="M17.2212 6.16772C16.972 6.16772 16.75 6.38977 16.75 6.63888C16.75 6.888 16.972 7.11003 17.2212 7.11003C17.4703 7.11003 17.6923 6.88799 17.6923 6.63888C17.6641 6.38868 17.4703 6.16772 17.2212 6.16772Z" fill= "currentColor" stroke="currentColor" stroke-width="0.4"/>
</svg>
