<svg width="24" height="24" viewBox="0 0 24 24" fill="none" xmlns="http://www.w3.org/2000/svg">
<path fill-rule="evenodd" clip-rule="evenodd" d="M7.30806 12.1644C7.14514 12.1601 7.01568 12.0264 7.01568 11.8643C7.01568 11.7014 7.14515 11.5685 7.30806 11.5642H16.69C16.8529 11.5685 16.9823 11.7014 16.9823 11.8643C16.9823 12.0264 16.8529 12.1601 16.69 12.1644H7.30806ZM6.10765 19.829H17.8905C18.0928 19.8307 18.2875 19.7518 18.4315 19.6095C18.5738 19.4654 18.6527 19.2708 18.651 19.0684V4.68847C18.6536 4.48612 18.5747 4.29148 18.4315 4.1483C18.2883 4.00511 18.0928 3.92537 17.8905 3.92794H6.10765C5.9053 3.92623 5.71066 4.00511 5.56662 4.14744L5.5529 4.16031C5.41829 4.30349 5.34455 4.49212 5.34626 4.68847V19.0693C5.34369 19.2717 5.42343 19.4663 5.56662 19.6095C5.70981 19.7527 5.90445 19.8324 6.10765 19.8298L6.10765 19.829ZM17.8913 20.4292H17.8905C18.2515 20.4309 18.5987 20.2885 18.8551 20.0339L18.8568 20.0322C19.1115 19.7766 19.2538 19.4294 19.2521 19.0684V18.7083L20.0263 18.4871C20.3684 18.3876 20.6574 18.1561 20.8297 17.8449C21.0029 17.5285 21.0441 17.1564 20.9438 16.81L19.2521 10.8749V4.68847C19.2547 4.3275 19.1123 3.97937 18.856 3.72387C18.6004 3.46749 18.2523 3.32517 17.8914 3.32774H17.1085L17.0099 3.0002C17.0073 2.98819 17.0039 2.97619 16.9996 2.96504C16.7904 2.26025 16.0547 1.85296 15.3456 2.0493C15.3319 2.05188 15.3182 2.05616 15.3053 2.06045L10.815 3.32772H6.10781C5.74599 3.32515 5.39786 3.46748 5.1415 3.723L5.12436 3.74186C4.87999 3.99565 4.74451 4.33519 4.74622 4.68846V5.04857L3.97198 5.2715C3.62815 5.37182 3.33749 5.60503 3.16513 5.91971C2.99365 6.23438 2.95335 6.60479 3.05538 6.94862L4.74708 12.8837L4.74622 19.0692C4.74365 19.4302 4.88598 19.7783 5.14235 20.0338C5.39787 20.2902 5.74598 20.4325 6.10695 20.43H6.88892L6.99439 20.7815L6.99524 20.7807C7.09471 21.1262 7.32706 21.4177 7.6426 21.5909C7.95727 21.7641 8.32854 21.8044 8.67322 21.7033L13.1833 20.43L17.8913 20.4292ZM10.9771 20.4292L8.51206 21.1254L8.51121 21.1245C8.31571 21.182 8.10478 21.1597 7.92558 21.0619C7.75238 20.9651 7.62462 20.8039 7.56974 20.6126L7.51487 20.4292H10.9771ZM4.74608 10.6956L3.63143 6.78497C3.57399 6.58948 3.59628 6.38025 3.69403 6.20193C3.79006 6.02873 3.95041 5.90097 4.13988 5.8461L4.74607 5.6729L4.74608 10.6956ZM13.0211 3.32783L15.4861 2.63159H15.4869C15.6824 2.57414 15.8925 2.59644 16.0708 2.69418C16.2449 2.79022 16.3726 2.95227 16.4275 3.14262L16.4824 3.32697L13.0211 3.32783ZM19.252 13.0623L20.3667 16.9729C20.4241 17.1675 20.4018 17.3776 20.3041 17.5559C20.2081 17.7291 20.0477 17.8569 19.8582 17.9118L19.252 18.085L19.252 13.0623ZM16.2288 14.7514C16.3472 14.6391 16.5332 14.6425 16.6481 14.7591C16.7622 14.8749 16.7622 15.0609 16.649 15.1775L14.6958 17.1041H14.6949C14.5775 17.219 14.3897 17.219 14.2731 17.1024L13.1284 15.9578C13.0169 15.8403 13.0187 15.6542 13.1344 15.5385C13.2493 15.4236 13.4354 15.421 13.5528 15.5333L14.4874 16.4679L16.2297 14.7505L16.2288 14.7514ZM17.5064 15.9278C17.5064 17.1762 16.6241 18.2505 15.3997 18.494C14.1753 18.7366 12.9492 18.0815 12.4716 16.9275C11.994 15.7742 12.3978 14.4445 13.4362 13.7506C14.4745 13.0568 15.8575 13.1933 16.7407 14.0764C17.2321 14.5669 17.5081 15.2331 17.5073 15.9276L17.5064 15.9278ZM17.1643 13.6522C17.8717 14.3605 18.2086 15.3559 18.0775 16.3479C17.9463 17.3391 17.3615 18.2137 16.4947 18.7135C15.6287 19.2125 14.5792 19.2811 13.6548 18.8978C12.7313 18.5145 12.0376 17.7231 11.7796 16.7568C11.5215 15.7905 11.7264 14.759 12.336 13.9659C12.9457 13.1727 13.8888 12.708 14.8886 12.708C15.7426 12.708 16.5616 13.0477 17.1643 13.6522ZM7.30913 7.25068C7.14622 7.2464 7.01676 7.1135 7.01676 6.95058C7.01676 6.78767 7.14623 6.65476 7.30913 6.65048H16.6902C16.8531 6.65477 16.9825 6.78767 16.9825 6.95058C16.9825 7.1135 16.8531 7.2464 16.6902 7.25068H7.30913ZM7.30913 9.70888C7.14279 9.70888 7.00903 9.57512 7.00903 9.40877C7.00903 9.24329 7.14279 9.10867 7.30913 9.10867H16.6902C16.8557 9.10867 16.9903 9.24329 16.9903 9.40877C16.9903 9.57511 16.8557 9.70888 16.6902 9.70888H7.30913ZM7.30913 17.1085C7.14279 17.1085 7.00903 16.9739 7.00903 16.8084C7.00903 16.6429 7.14279 16.5083 7.30913 16.5083H10.268C10.4335 16.5083 10.5681 16.6429 10.5681 16.8084C10.5681 16.9739 10.4335 17.1085 10.268 17.1085H7.30913ZM7.30913 14.6512C7.14622 14.6469 7.01676 14.514 7.01676 14.3511C7.01676 14.1881 7.14623 14.0552 7.30913 14.051H10.268C10.3486 14.0492 10.4275 14.0793 10.4858 14.1358C10.5432 14.1924 10.5767 14.2705 10.5767 14.3511C10.5767 14.4325 10.5432 14.5097 10.4858 14.5663C10.4275 14.6229 10.3486 14.6537 10.268 14.6512L7.30913 14.6512Z" fill="currentColor"
stroke="currentColor" stroke-width="0.4"/>
</svg>
