<svg width="24" height="24" viewBox="0 0 24 24" fill="none" xmlns="http://www.w3.org/2000/svg">
<path d="M19.4089 17.1706C18.6952 16.7596 18.0362 16.261 17.4456 15.6886C16.1741 14.4653 14.1625 14.4653 12.8908 15.6886C12.3002 16.261 11.6412 16.7595 10.9284 17.1706C10.3788 17.4404 8.90035 18.5871 9.29957 20.257C9.74711 22.1255 11.2118 21.9423 13.0659 21.7099L13.106 21.7026C14.4677 21.4337 15.8706 21.4337 17.2323 21.7035C17.7865 21.843 18.3535 21.9232 18.9241 21.9414C19.9112 21.9414 20.7233 21.5659 21.0369 20.257C21.4361 18.5872 19.9576 17.4406 19.4089 17.1706ZM20.2584 20.0701C20.0242 21.0481 19.5575 21.4027 17.4082 20.9214C16.6927 20.7664 15.9617 20.6899 15.2297 20.6935C14.4632 20.6917 13.6994 20.7664 12.9474 20.9178C10.8492 21.1803 10.3324 21.131 10.079 20.071C9.75815 18.7311 11.2657 17.898 11.2812 17.8898C12.0642 17.445 12.7879 16.9027 13.4351 16.2756C13.8944 15.8335 14.5042 15.581 15.1422 15.571L15.1678 15.5728L15.1915 15.5719V15.571C15.8304 15.5792 16.442 15.8317 16.9023 16.2756C17.5485 16.9027 18.2723 17.445 19.0552 17.8898C19.0707 17.8971 20.5783 18.7311 20.2575 20.071L20.2584 20.0701Z" fill="currentColor" stroke="currentColor" stroke-width="0.3"/>
<path d="M9.92609 16.3803C9.97622 16.3803 10.0273 16.3776 10.0774 16.3721C10.9114 16.2828 11.3653 15.2838 11.2331 13.8282C11.1785 13.2121 10.8649 12.6479 10.3718 12.2751C10.0309 11.998 9.58975 11.8759 9.15499 11.9388C8.7585 12.0126 8.41304 12.256 8.21069 12.605C7.9008 13.1228 7.86068 13.8647 8.09949 14.6395C8.11316 14.6841 8.12866 14.727 8.14324 14.7698H7.12967V10.8404C7.12967 10.7347 7.08774 10.6326 7.013 10.5579C6.93735 10.4822 6.83617 10.4403 6.72954 10.4403H2.80105V7.12967H6.72954C6.95103 7.12967 7.12967 6.9501 7.12967 6.72954V2.80012H10.4403V6.72954C10.4403 6.95011 10.6198 7.12967 10.8413 7.12967H14.7698V10.4403H14.7507C14.6276 10.0584 14.3934 9.72112 14.078 9.4732C13.7034 9.19247 13.2303 9.07944 12.77 9.16057C12.3918 9.2262 12.06 9.44861 11.8558 9.774C11.4903 10.33 11.4101 11.1804 11.6352 12.1083C11.9397 13.3616 12.6525 14.15 13.47 14.1491C13.501 14.1491 13.532 14.1482 13.5639 14.1455C13.8702 14.1145 14.1509 13.9577 14.3387 13.7134C14.7871 13.1775 15.0232 12.1885 14.9257 11.2515C14.9257 11.2478 14.9248 11.2442 14.9238 11.2405H15.1699C15.3914 11.2405 15.571 11.0619 15.571 10.8404V6.72968C15.571 6.50819 15.3914 6.32861 15.1699 6.32861H11.2415V2.40013C11.2415 2.17864 11.0619 2 10.8413 2H6.72968C6.5091 2 6.32955 2.17865 6.32955 2.40013V6.32861H2.40013C2.17955 6.32861 2 6.50818 2 6.72968V10.8404C2 11.0619 2.17956 11.2405 2.40013 11.2405H6.32955V15.1699C6.32955 15.3914 6.50911 15.5701 6.72968 15.5701H8.54899C8.84704 16.0504 9.36191 16.3529 9.92609 16.3803ZM13.7241 13.1992C13.6713 13.2739 13.5938 13.3259 13.5054 13.3468C13.1399 13.3715 12.6495 12.892 12.4134 11.9186C12.2457 11.2268 12.2886 10.5732 12.5255 10.2123L12.5246 10.2132C12.6076 10.0737 12.7461 9.97803 12.9056 9.94886C12.9585 9.94065 13.0114 9.9361 13.0651 9.9361C13.2556 9.93428 13.4416 9.99625 13.5938 10.1111C13.8363 10.3207 13.9994 10.606 14.0577 10.9205C14.0586 10.9232 14.0596 10.9251 14.0596 10.9278V10.9269C14.0915 11.0609 14.1152 11.1976 14.1288 11.3343C14.2018 12.0352 14.0277 12.8364 13.7241 13.1992ZM8.89777 13.016C8.98345 12.8619 9.13475 12.7553 9.30884 12.7243C9.33437 12.7198 9.3608 12.717 9.38632 12.7179C9.57135 12.7298 9.74727 12.7991 9.89129 12.9157C10.203 13.1518 10.4008 13.51 10.4354 13.9001C10.5156 14.7888 10.3169 15.5408 9.99155 15.5754C9.55495 15.621 9.09283 15.1397 8.86497 14.4024C8.69452 13.8527 8.70636 13.3341 8.89777 13.016Z" fill="currentColor" stroke="currentColor" stroke-width="0.3"/>
<path d="M22.9191 13.4792C22.8024 13.0927 22.5217 12.7765 22.1525 12.6142C21.7442 12.4529 21.2866 12.4702 20.8911 12.6625C20.325 12.9123 19.8912 13.389 19.697 13.976C19.2349 15.3623 19.4473 16.4389 20.2384 16.7177C20.3879 16.7706 20.5456 16.7979 20.7042 16.7979C21.3769 16.7979 22.0687 16.3212 22.56 15.4845C22.971 14.7854 23.1023 14.0544 22.9191 13.4792ZM21.87 15.0789C21.479 15.7442 20.9166 16.1079 20.5037 15.963C20.1947 15.8545 20.1737 15.077 20.4563 14.2303V14.2294C20.5793 13.8575 20.8537 13.5549 21.2128 13.3954C21.3386 13.3388 21.4753 13.3079 21.6139 13.3042C21.685 13.3024 21.757 13.3161 21.8226 13.3434C21.9848 13.4136 22.1079 13.5521 22.1562 13.7217C22.2683 14.0753 22.1617 14.583 21.87 15.0789Z" fill="currentColor" stroke="currentColor" stroke-width="0.3"/>
<path d="M17.3728 14.1755C17.4494 14.1901 17.5269 14.1974 17.6044 14.1974C18.3673 14.1974 19.0992 13.5056 19.5139 12.3625C19.8393 11.4656 19.853 10.6116 19.5513 10.0182H19.5522C19.3854 9.67273 19.0791 9.4148 18.7109 9.30814C18.2624 9.17689 17.7794 9.23796 17.3765 9.47494C16.8624 9.78211 16.5133 10.3454 16.3383 11.1493C16.1387 12.0699 16.2645 13.0789 16.6509 13.6605C16.8104 13.9248 17.072 14.1108 17.3728 14.1755ZM17.1204 11.3199C17.2443 10.7493 17.4749 10.3491 17.7867 10.1632C17.9207 10.0821 18.0738 10.0402 18.2296 10.0411C18.3171 10.0411 18.4046 10.0529 18.4885 10.0775C18.6444 10.1231 18.772 10.2343 18.8376 10.382C19.0336 10.7666 19.0044 11.4202 18.761 12.0892C18.4202 13.0298 17.8778 13.4555 17.5187 13.388C17.433 13.358 17.3619 13.2969 17.3182 13.2176C17.0566 12.8238 16.9709 12.008 17.1204 11.3199Z" fill="currentColor" stroke="currentColor" stroke-width="0.3"/>
</svg>
